<svg xmlns="http://www.w3.org/2000/svg" viewBox="0 0 512 512"><circle cx="40.0" cy="40.0" r="14" fill="currentColor"/><circle cx="88.0" cy="40.0" r="14" fill="currentColor"/><circle cx="136.0" cy="40.0" r="14" fill="currentColor"/><circle cx="184.0" cy="40.0" r="14" fill="currentColor"/><circle cx="232.0" cy="40.0" r="14" fill="currentColor"/><circle cx="280.0" cy="40.0" r="14" fill="currentColor"/><circle cx="328.0" cy="40.0" r="14" fill="currentColor"/><circle cx="376.0" cy="40.0" r="14" fill="currentColor"/><circle cx="424.0" cy="40.0" r="14" fill="currentColor"/><circle cx="472.0" cy="40.0" r="14" fill="currentColor"/><circle cx="40.0" cy="88.0" r="14" fill="currentColor"/><circle cx="88.0" cy="88.0" r="14" fill="currentColor"/><circle cx="136.0" cy="88.0" r="14" fill="currentColor"/><circle cx="184.0" cy="88.0" r="14" fill="currentColor"/><circle cx="232.0" cy="88.0" r="14" fill="currentColor"/><circle cx="280.0" cy="88.0" r="14" fill="currentColor"/><circle cx="328.0" cy="88.0" r="14" fill="currentColor"/><circle cx="376.0" cy="88.0" r="14" fill="currentColor"/><circle cx="424.0" cy="88.0" r="14" fill="currentColor"/><circle cx="472.0" cy="88.0" r="14" fill="currentColor"/><circle cx="40.0" cy="136.0" r="14" fill="currentColor"/><circle cx="88.0" cy="136.0" r="14" fill="currentColor"/><circle cx="136.0" cy="136.0" r="14" fill="currentColor"/><circle cx="184.0" cy="136.0" r="14" fill="currentColor"/><circle cx="232.0" cy="136.0" r="14" fill="currentColor"/><circle cx="280.0" cy="136.0" r="14" fill="currentColor"/><circle cx="328.0" cy="136.0" r="14" fill="currentColor"/><circle cx="376.0" cy="136.0" r="14" fill="currentColor"/><circle cx="424.0" cy="136.0" r="14" fill="currentColor"/><circle cx="472.0" cy="136.0" r="14" fill="currentColor"/><circle cx="40.0" cy="184.0" r="14" fill="currentColor"/><circle cx="88.0" cy="184.0" r="14" fill="currentColor"/><circle cx="136.0" cy="184.0" r="14" fill="currentColor"/><circle cx="184.0" cy="184.0" r="14" fill="currentColor"/><circle cx="232.0" cy="184.0" r="14" fill="currentColor"/><circle cx="280.0" cy="184.0" r="14" fill="currentColor"/><circle cx="328.0" cy="184.0" r="14" fill="currentColor"/><circle cx="376.0" cy="184.0" r="14" fill="currentColor"/><circle cx="424.0" cy="184.0" r="14" fill="currentColor"/><circle cx="472.0" cy="184.0" r="14" fill="currentColor"/><circle cx="40.0" cy="232.0" r="14" fill="currentColor"/><circle cx="88.0" cy="232.0" r="14" fill="currentColor"/><circle cx="136.0" cy="232.0" r="14" fill="currentColor"/><circle cx="184.0" cy="232.0" r="14" fill="currentColor"/><circle cx="232.0" cy="232.0" r="14" fill="currentColor"/><circle cx="280.0" cy="232.0" r="14" fill="currentColor"/><circle cx="328.0" cy="232.0" r="14" fill="currentColor"/><circle cx="376.0" cy="232.0" r="14" fill="currentColor"/><circle cx="424.0" cy="232.0" r="14" fill="currentColor"/><circle cx="472.0" cy="232.0" r="14" fill="currentColor"/><circle cx="40.0" cy="280.0" r="14" fill="currentColor"/><circle cx="88.0" cy="280.0" r="14" fill="currentColor"/><circle cx="136.0" cy="280.0" r="14" fill="currentColor"/><circle cx="184.0" cy="280.0" r="14" fill="currentColor"/><circle cx="232.0" cy="280.0" r="14" fill="currentColor"/><circle cx="280.0" cy="280.0" r="14" fill="currentColor"/><circle cx="328.0" cy="280.0" r="14" fill="currentColor"/><circle cx="376.0" cy="280.0" r="14" fill="currentColor"/><circle cx="424.0" cy="280.0" r="14" fill="currentColor"/><circle cx="472.0" cy="280.0" r="14" fill="currentColor"/><circle cx="40.0" cy="328.0" r="14" fill="currentColor"/><circle cx="88.0" cy="328.0" r="14" fill="currentColor"/><circle cx="136.0" cy="328.0" r="14" fill="currentColor"/><circle cx="184.0" cy="328.0" r="14" fill="currentColor"/><circle cx="232.0" cy="328.0" r="14" fill="currentColor"/><circle cx="280.0" cy="328.0" r="14" fill="currentColor"/><circle cx="328.0" cy="328.0" r="14" fill="currentColor"/><circle cx="376.0" cy="328.0" r="14" fill="currentColor"/><circle cx="424.0" cy="328.0" r="14" fill="currentColor"/><circle cx="472.0" cy="328.0" r="14" fill="currentColor"/><circle cx="40.0" cy="376.0" r="14" fill="currentColor"/><circle cx="88.0" cy="376.0" r="14" fill="currentColor"/><circle cx="136.0" cy="376.0" r="14" fill="currentColor"/><circle cx="184.0" cy="376.0" r="14" fill="currentColor"/><circle cx="232.0" cy="376.0" r="14" fill="currentColor"/><circle cx="280.0" cy="376.0" r="14" fill="currentColor"/><circle cx="328.0" cy="376.0" r="14" fill="currentColor"/><circle cx="376.0" cy="376.0" r="14" fill="currentColor"/><circle cx="424.0" cy="376.0" r="14" fill="currentColor"/><circle cx="472.0" cy="376.0" r="14" fill="currentColor"/><circle cx="40.0" cy="424.0" r="14" fill="currentColor"/><circle cx="88.0" cy="424.0" r="14" fill="currentColor"/><circle cx="136.0" cy="424.0" r="14" fill="currentColor"/><circle cx="184.0" cy="424.0" r="14" fill="currentColor"/><circle cx="232.0" cy="424.0" r="14" fill="currentColor"/><circle cx="280.0" cy="424.0" r="14" fill="currentColor"/><circle cx="328.0" cy="424.0" r="14" fill="currentColor"/><circle cx="376.0" cy="424.0" r="14" fill="currentColor"/><circle cx="424.0" cy="424.0" r="14" fill="currentColor"/><circle cx="472.0" cy="424.0" r="14" fill="currentColor"/><circle cx="40.0" cy="472.0" r="14" fill="currentColor"/><circle cx="88.0" cy="472.0" r="14" fill="currentColor"/><circle cx="136.0" cy="472.0" r="14" fill="currentColor"/><circle cx="184.0" cy="472.0" r="14" fill="currentColor"/><circle cx="232.0" cy="472.0" r="14" fill="currentColor"/><circle cx="280.0" cy="472.0" r="14" fill="currentColor"/><circle cx="328.0" cy="472.0" r="14" fill="currentColor"/><circle cx="376.0" cy="472.0" r="14" fill="currentColor"/><circle cx="424.0" cy="472.0" r="14" fill="currentColor"/><circle cx="472.0" cy="472.0" r="14" fill="currentColor"/></svg>
