<svg xmlns="http://www.w3.org/2000/svg" viewBox="0 0 512 512"><path fill="currentColor" d="M256 40v100m0 0c-30-30-60-30-80-20l60 60c20-10 20-30 20-40zm0 0c30-30 60-30 80-20l-60 60c-20-10-20-30-20-40zm-100 60c-30 0-50 20-50 50l80 30c-10-30-10-60-30-80zm200 0c30 0 50 20 50 50l-80 30c10-30 10-60 30-80zm-200 100c-30 10-40 40-30 70l90-10c-20-20-40-50-60-60zm200 0c30 10 40 40 30 70l-90-10c20-20 40-50 60-60zm-100 70-80 200h160zm-80 200h160l20 40H156z" stroke="currentColor" stroke-width="20" fill="none" stroke-linejoin="round" stroke-linecap="round"/></svg>
